<svg width="1458" height="376" viewBox="0 0 1458 376" fill="none" xmlns="http://www.w3.org/2000/svg">
<g clip-path="url(#clip0_5_136)" id="_ig_new_logo_svg">
<path fill-rule="evenodd" clip-rule="evenodd" d="M551.203 22.1998H528.498V144.512H551.203V22.1998ZM634.853 61.69L702.264 144.512H720.953V22.1998H698.423V105.022L631.012 22.1998H612.323V144.512H634.853V61.69ZM848.786 80.6493C842.963 78.3791 835.515 76.1938 826.43 74.0983C819.795 72.4668 814.556 71.0149 810.715 69.7277C806.873 68.4455 803.7 66.6992 801.196 64.484C798.691 62.2737 797.439 59.4149 797.439 55.9224C797.439 50.9131 799.624 46.8968 803.99 43.8683C808.355 40.8398 815.02 39.323 823.985 39.323C829.458 39.323 835.101 40.1413 840.923 41.7678C846.745 43.3993 852.333 45.7841 857.686 48.9324L864.845 31.2853C859.607 27.7928 853.375 25.1135 846.156 23.2476C838.937 21.3865 831.603 20.4536 824.15 20.4536C813.439 20.4536 804.384 22.085 796.995 25.348C789.601 28.611 784.073 33.0066 780.407 38.5397C776.74 44.0728 774.904 50.2196 774.904 56.9751C774.904 65.0128 776.969 71.3891 781.105 76.109C785.236 80.8289 790.185 84.2964 795.947 86.5067C801.71 88.7219 809.248 90.9371 818.562 93.1474C825.198 94.7789 830.436 96.2358 834.278 97.518C838.119 98.8003 841.292 100.576 843.797 102.847C846.301 105.117 847.553 108 847.553 111.498C847.553 116.278 845.308 120.119 840.828 123.028C836.343 125.942 829.563 127.399 820.483 127.399C813.149 127.399 805.84 126.147 798.566 123.642C791.288 121.137 785.146 117.904 780.142 113.943L772.285 131.59C777.408 136.02 784.363 139.568 793.153 142.247C801.944 144.926 811.054 146.268 820.483 146.268C831.194 146.268 840.274 144.637 847.728 141.374C855.176 138.116 860.739 133.745 864.406 128.267C868.073 122.794 869.909 116.677 869.909 109.921C869.909 102.003 867.838 95.7119 863.708 91.0519C859.572 86.3919 854.598 82.9294 848.776 80.6542L848.786 80.6493ZM939.246 144.512H961.951V41.4185H1002.47V22.1998H898.73V41.4185H939.246V144.507V144.512ZM1074.42 22.1998L1019.4 144.512H1042.81L1085.42 44.916L1128.2 144.512H1151.96L1096.77 22.1998H1074.41H1074.42ZM1283.46 105.022L1216.05 22.1998H1197.36V144.512H1219.89V61.69L1287.3 144.512H1305.99V22.1998H1283.46V105.022ZM1392.43 144.512H1415.14V41.4185H1455.66V22.1998H1351.92V41.4185H1392.43V144.507V144.512ZM569.712 255.464C576.407 251.857 584.06 250.045 592.676 250.045C605.832 250.045 617.067 254.705 626.382 264.025L640.7 250.045C634.993 243.524 627.953 238.575 619.567 235.192C611.185 231.815 601.866 230.123 591.624 230.123C579.051 230.123 567.726 232.832 557.659 238.246C547.586 243.664 539.698 251.148 533.996 260.698C528.288 270.252 525.44 281.024 525.44 293.023C525.44 305.022 528.293 315.799 533.996 325.349C539.698 334.903 547.556 342.387 557.574 347.8C567.587 353.219 578.822 355.923 591.279 355.923C600.125 355.923 608.746 354.581 617.127 351.907C625.509 349.227 632.842 345.386 639.134 340.376V291.626H617.651V329.719C610.432 333.915 602.051 336.011 592.502 336.011C584 336.011 576.407 334.15 569.712 330.418C563.017 326.691 557.778 321.567 553.997 315.041C550.21 308.52 548.319 301.181 548.319 293.023C548.319 284.866 550.21 277.182 553.997 270.656C557.778 264.135 563.017 259.066 569.712 255.454V255.464ZM743.039 231.874L688.026 354.187H711.429L754.04 254.591L796.825 354.187H820.578L765.39 231.874H743.034H743.039ZM991.376 231.874L943.701 259.635L895.153 231.874H876.464V354.187H898.122L898.246 258.737L943.636 284.601L988.502 258.737L988.756 354.187H1010.24L1010.06 231.874H991.376ZM1076.42 354.187H1099.13V231.874H1076.42V354.187ZM1256.82 314.697L1189.41 231.874H1170.72V354.187H1193.25V271.365L1260.67 354.187H1279.35V231.874H1256.82V314.697ZM1434.96 329.724C1427.74 333.92 1419.36 336.016 1409.81 336.016C1401.31 336.016 1393.71 334.155 1387.02 330.423C1380.32 326.696 1375.08 321.572 1371.3 315.046C1367.51 308.525 1365.62 301.186 1365.62 293.028C1365.62 284.871 1367.51 277.187 1371.3 270.661C1375.08 264.14 1380.32 259.071 1387.02 255.459C1393.71 251.852 1401.37 250.04 1409.98 250.04C1423.14 250.04 1434.37 254.7 1443.69 264.02L1458 250.04C1452.3 243.519 1445.26 238.57 1436.87 235.187C1428.49 231.81 1419.17 230.118 1408.93 230.118C1396.36 230.118 1385.03 232.827 1374.96 238.241C1364.89 243.659 1357 251.143 1351.3 260.693C1345.59 270.247 1342.74 281.019 1342.74 293.018C1342.74 305.017 1345.6 315.794 1351.3 325.344C1357 334.898 1364.86 342.382 1374.88 347.795C1384.89 353.214 1396.13 355.918 1408.58 355.918C1417.43 355.918 1426.05 354.576 1434.43 351.902C1442.81 349.222 1450.15 345.381 1456.44 340.371V291.621H1434.96V329.714V329.724Z" fill="white"/>
<path d="M18.4041 57.8271C12.0504 57.8271 5.87157 54.5326 2.46646 48.639C-2.60998 39.8528 0.402631 28.6179 9.1953 23.5452L45.9612 2.3341C54.7539 -2.73868 65.997 0.271904 71.0733 9.05801C76.1498 17.8442 73.1372 29.079 64.3445 34.1518L27.5786 55.363C24.6838 57.033 21.5226 57.8271 18.4041 57.8271Z" fill="url(#paint0_linear_5_136)"/>
<path d="M294.137 177.33L36.7693 325.812L36.7695 262.177L238.678 145.624L202.095 124.518L9.1944 235.663C3.50656 238.944 0.00271012 245.008 0.00271012 251.571L0.00246501 357.63C0.00246501 364.193 3.50631 370.257 9.19416 373.539C12.0384 375.18 15.2117 376 18.386 376C21.5594 376 24.734 375.179 27.5775 373.539L340.096 193.239C345.784 189.958 349.288 183.893 349.288 177.33C349.288 170.768 345.784 164.703 340.096 161.422L248.491 108.572C248.295 108.454 248.097 108.34 247.897 108.23L156.262 55.3629C150.574 52.0816 143.567 52.0816 137.879 55.3629L9.19476 129.604C0.402145 134.677 -2.61046 145.911 2.46597 154.698C5.87109 160.591 12.05 163.886 18.4037 163.886C21.5221 163.885 24.6834 163.092 27.5781 161.422L147.07 92.4835L294.137 177.33Z" fill="url(#paint1_linear_5_136)"/>
<path d="M294.137 177.33L36.7693 325.812L36.7695 262.177L238.678 145.624L202.095 124.518L9.1944 235.663C3.50656 238.944 0.00271012 245.008 0.00271012 251.571L0.00246501 357.63C0.00246501 364.193 3.50631 370.257 9.19416 373.539C12.0384 375.18 15.2117 376 18.386 376C21.5594 376 24.734 375.179 27.5775 373.539L340.096 193.239C345.784 189.958 349.288 183.893 349.288 177.33C349.288 170.768 345.784 164.703 340.096 161.422L248.491 108.572C248.295 108.454 248.097 108.34 247.897 108.23L156.262 55.3629C150.574 52.0816 143.567 52.0816 137.879 55.3629L9.19476 129.604C0.402145 134.677 -2.61046 145.911 2.46597 154.698C5.87109 160.591 12.05 163.886 18.4037 163.886C21.5221 163.885 24.6834 163.092 27.5781 161.422L147.07 92.4835L294.137 177.33Z" fill="url(#paint2_radial_5_136)"/>
<path d="M294.137 177.33L36.7693 325.812L36.7695 262.177L48.411 255.457L27.576 225.071L9.1944 235.663C3.50656 238.944 0.00271015 245.008 0.00271015 251.571L0.00246504 357.63C0.00246504 364.193 3.50632 370.257 9.19416 373.539C12.0384 375.18 15.2117 376 18.386 376C21.5594 376 24.734 375.179 27.5775 373.539L340.096 193.239C345.784 189.958 349.288 183.893 349.288 177.33C349.288 170.768 345.784 164.703 340.096 161.422L248.491 108.572C248.295 108.454 248.097 108.34 247.897 108.23L156.262 55.3629C150.574 52.0816 143.567 52.0816 137.879 55.3629L9.19476 129.604C0.402145 134.677 -2.61046 145.911 2.46597 154.698C5.87109 160.591 12.05 163.886 18.4037 163.886C21.5221 163.885 24.6834 163.092 27.5781 161.422L147.07 92.4835L294.137 177.33Z" fill="url(#paint3_linear_5_136)"/>
</g>
<defs>
<linearGradient id="paint0_linear_5_136" x1="10.0661" y1="83.9204" x2="68.1129" y2="-0.130065" gradientUnits="userSpaceOnUse">
<stop offset="0.260417" stop-color="#FF670D"/>
<stop offset="1" stop-color="#FF5317"/>
</linearGradient>
<linearGradient id="paint1_linear_5_136" x1="51.7186" y1="214.43" x2="127.497" y2="82.364" gradientUnits="userSpaceOnUse">
<stop stop-color="#FF7207"/>
<stop offset="1" stop-color="#FF7208" stop-opacity="0"/>
</linearGradient>
<radialGradient id="paint2_radial_5_136" cx="0" cy="0" r="1" gradientUnits="userSpaceOnUse" gradientTransform="translate(34.6276 229.717) rotate(2.72633) scale(31.6524 34.218)">
<stop stop-color="#FF7307"/>
<stop offset="1" stop-color="#FF7408" stop-opacity="0"/>
</radialGradient>
<linearGradient id="paint3_linear_5_136" x1="13.0546" y1="376" x2="349.288" y2="170.804" gradientUnits="userSpaceOnUse">
<stop stop-color="#FF8000"/>
<stop offset="1" stop-color="#FF4020"/>
</linearGradient>
<clipPath id="clip0_5_136">
<rect width="1458" height="376" fill="white"/>
</clipPath>
</defs>
</svg>
