<svg xmlns="http://www.w3.org/2000/svg" width="18" height="30" fill="none" xmlns:v="https://vecta.io/nano"><path d="M17.574 14.974l-.015-.07C15.392 6.758 8.937.976 8.662.735L7.829 0l.054 1.234c0 .053.152 4.836-3.716 8.815-4.201 4.325-4.176 7.892-4.166 9.808l.005.265c0 5.224 3.198 9.13 7.773 9.774-.249-.047-.503-.108-.759-.201-1.475-.547-2.338-1.786-2.505-3.573l-.039-.353c-.132-1.381-.304-3.091 2.216-6.335a23.14 23.14 0 0 0 2.436-3.873l.338-.682.446.588c1.333 1.745 2.353 3.508 3.039 5.224.632 1.516.672 3.914.623 4.425-.24 2.609-1.814 4.554-3.921 4.836-.137.019-.343.037-.595.044.022 0 .043.003.065.003C14.103 30 18 25.199 18 19.07c0-1.469-.412-3.99-.426-4.096z" fill="#000"/></svg>