<svg xmlns="http://www.w3.org/2000/svg" width="30" height="30" fill="#000" xmlns:v="https://vecta.io/nano"><path d="M12.857 1.406c0-.777.63-1.406 1.406-1.406h1.473c.777 0 1.406.63 1.406 1.406v3.616c0 .777-.63 1.406-1.406 1.406h-1.473c-.777 0-1.406-.63-1.406-1.406V1.406zm7.423 5.36c-.549.549-.549 1.44 0 1.989l1.042 1.042c.549.549 1.44.549 1.989 0l2.557-2.557c.549-.549.549-1.44 0-1.989l-1.042-1.042c-.549-.549-1.44-.549-1.989 0L20.28 6.766zm4.698 6.091c-.777 0-1.406.63-1.406 1.406v1.473c0 .777.63 1.406 1.406 1.406h3.616c.777 0 1.406-.63 1.406-1.406v-1.473c0-.777-.63-1.406-1.406-1.406h-3.616zm-4.698 8.465c-.549.549-.549 1.44 0 1.989l2.557 2.557c.549.549 1.44.549 1.989 0l1.042-1.042c.549-.549.549-1.44 0-1.989l-2.557-2.557c-.549-.549-1.44-.549-1.989 0l-1.042 1.042zM1.406 12.857c-.777 0-1.406.63-1.406 1.406v1.473c0 .777.63 1.406 1.406 1.406h3.616c.777 0 1.406-.63 1.406-1.406v-1.473c0-.777-.63-1.406-1.406-1.406H1.406zm12.857 10.714c-.777 0-1.406.63-1.406 1.406v3.616c0 .777.63 1.406 1.406 1.406h1.473c.777 0 1.406-.63 1.406-1.406v-3.616c0-.777-.63-1.406-1.406-1.406h-1.473zM4.209 7.239c-.549-.549-.549-1.44 0-1.989L5.25 4.209c.549-.549 1.44-.549 1.989 0l2.557 2.557c.549.549.549 1.44 0 1.989L8.754 9.796c-.549.549-1.44.549-1.989 0L4.209 7.239zm0 17.587c-.549-.549-.549-1.44 0-1.989l2.557-2.557c.549-.549 1.44-.549 1.989 0l1.042 1.042c.549.549.549 1.44 0 1.989L7.24 25.868c-.549.549-1.44.549-1.989 0l-1.042-1.042z"/></svg>